# xmcd
#
# Track frame offsets: 
#        183
#        16243
#        31860
#        47985
#        64093
#        76083
#        91938
#        104578
#        119360
#        137715
#
# Disc length: 2049 seconds
#
# Revision: 4
# Processed by: cddbd v1.5.2PL0 Copyright (c) Steve Scherf et al.
# Submitted via: ExactAudioCopy v1.3
#
DISCID=7b07ff0a
DTITLE=James Taylor - Walking Man
DYEAR=1974
DGENRE=Folk/Rock
TTITLE0=Walking Man
TTITLE1=Rock n Roll is Music Now
TTITLE2=Let It All Fall Down
TTITLE3=Me and My Guitar
TTITLE4=Daddy's Baby
TTITLE5=Ain't No Song
TTITLE6=Hello Old Friend
TTITLE7=Migration
TTITLE8=The Promised Land
TTITLE9=Fading Away
EXTD=YEAR: 1974
EXTT0=
EXTT1=
EXTT2=
EXTT3=
EXTT4=
EXTT5=
EXTT6=
EXTT7=
EXTT8=
EXTT9=
PLAYORDER=
